<svg xmlns:xlink="http://www.w3.org/1999/xlink"
  xmlns="http://www.w3.org/2000/svg" version="1.1" viewBox="0 0 440 440" height="440px" width="440px">
  <title>嗯嗯</title>
  <defs>
    <linearGradient id="linearGradient-1" y2="94.9598849%" x2="50%" y1="0.455533649%" x1="50%">
      <stop offset="0%" stop-color="#9ED7FC"></stop>
      <stop offset="100%" stop-color="#DDEBF8"></stop>
    </linearGradient>
    <linearGradient id="linearGradient-2" y2="94.9598849%" x2="50%" y1="0.455533649%" x1="50%">
      <stop offset="0%" stop-color="#9ED7FC"></stop>
      <stop offset="100%" stop-color="#DDEBF8"></stop>
    </linearGradient>
  </defs>
  <g fill-rule="evenodd" fill="none" stroke-width="1" stroke="none" id="嗯嗯">
    <g fill-rule="nonzero" transform="translate(60.000000, 41.830779)">
      <g transform="translate(83.871332, 335.618929)" id="脚">
        <path fill="#FFFFFF" id="椭圆-4" d="M23.7149008,1 C36.1858267,1 46.4298016,8.12624338 46.4298016,16.9227001 C46.4298016,25.7191567 36.1858267,32.8454001 23.7149008,32.8454001 C11.1326273,32.8454001 1,25.7191567 1,16.9227001 C1,8.12624338 11.1326273,1 23.7149008,1 Z"></path>
        <path fill="#000000" id="椭圆-4备份" d="M23.7149008,0 C21.5822165,0 19.5137849,0.199239682 17.5454735,0.573778638 L16.8121199,0.722401142 C7.09851524,2.81234967 0,9.20996629 0,16.9227001 C0,26.3707989 10.6522094,33.8454001 23.7149008,33.8454001 C36.7043447,33.8454001 47.4298016,26.3448273 47.4298016,16.9227001 C47.4298016,9.23116764 40.2824751,2.82013792 30.5907856,0.724546885 L29.8592102,0.575516425 C27.896004,0.199931971 25.8356263,0 23.7149008,0 Z M23.7149008,2 C35.7210998,2 45.4298016,8.78953133 45.4298016,16.9227001 C45.4298016,25.0558688 35.7210998,31.8454001 23.7149008,31.8454001 C11.6361754,31.8454001 2,25.0837449 2,16.9227001 C2,8.76165525 11.6361754,2 23.7149008,2 Z"></path>
        <path fill="#FFFFFF" id="椭圆-4-拷贝" d="M113.349681,0.665957342 C125.820607,0.665957342 136.064582,7.79220072 136.064582,16.5886574 C136.064582,25.3851141 125.820607,32.5113575 113.349681,32.5113575 C100.878755,32.5113575 90.63478,25.3851141 90.63478,16.5886574 C90.63478,7.79220072 100.878755,0.665957342 113.349681,0.665957342 Z"></path>
        <path fill="#000000" id="椭圆-4-拷贝备份" d="M113.349681,-0.334042658 C111.891682,-0.334042658 110.462207,-0.239543563 109.073222,-0.0584350195 L108.319681,0.0488934045 C97.7034416,1.68971851 89.63478,8.41640421 89.63478,16.5886574 C89.63478,26.0107846 100.360237,33.5113575 113.349681,33.5113575 C126.339125,33.5113575 137.064582,26.0107846 137.064582,16.5886574 C137.064582,8.41640421 128.99592,1.68971851 118.379681,0.0488934045 L117.62614,-0.0584350195 C116.237155,-0.239543563 114.80768,-0.334042658 113.349681,-0.334042658 Z M113.349681,1.66595734 C125.35588,1.66595734 135.064582,8.45548867 135.064582,16.5886574 C135.064582,24.7218261 125.35588,31.5113575 113.349681,31.5113575 C101.343482,31.5113575 91.63478,24.7218261 91.63478,16.5886574 C91.63478,8.45548867 101.343482,1.66595734 113.349681,1.66595734 Z"></path>
      </g>
      <g transform="translate(34.458119, 190.976969)" id="衣服">
        <path fill="#FFFFFF" id="椭圆-504" d="M17.6770323,59.6816486 C18.6791602,64.9149835 15.7841239,69.7029283 11.2188742,70.5937087 C6.76497209,71.4844892 2.31106998,68.1440626 1.19759445,63.0220751 C0.195466473,57.7887402 3.09050285,53.0007954 7.65575251,52.110015 C12.1096546,51.2192345 16.5635567,54.5596611 17.6770323,59.6816486 Z"></path>
        <path fill="#000000" id="椭圆-504备份" d="M7.45963638,51.1294343 C2.30752607,52.1347129 -0.880625598,57.4862532 0.215439257,63.2101474 C1.44183128,68.8530055 6.38593648,72.5801002 11.4149903,71.5742894 C16.4797767,70.5860494 19.6466152,65.3976301 18.7112386,59.7842815 L18.6542086,59.4692189 C17.4327954,53.8507182 12.4886902,50.1236235 7.45963638,51.1294343 Z M16.6388504,59.6302264 L16.697312,59.883 L16.6948771,59.8697208 C17.5926954,64.5583275 15.0493999,68.8274306 11.0273638,69.6122181 C7.12604842,70.39247 3.17585477,67.4146317 2.17477081,62.8096455 C1.28193135,58.1453962 3.82522684,53.8762931 7.84726287,53.0915056 C11.673553,52.3262586 15.5468595,55.1759496 16.6388504,59.6302264 Z"></path>
        <path fill="#FFFFFF" id="椭圆-504" d="M227.233127,52.110015 C231.798376,53.0007954 234.582065,57.7887402 233.579937,63.0220751 C232.577809,68.1440626 228.123907,71.4844892 223.558657,70.5937087 C219.104755,69.7029283 216.209719,64.9149835 217.211847,59.6816486 C218.213975,54.5596611 222.779225,51.2192345 227.233127,52.110015 Z"></path>
        <path fill="#000000" id="椭圆-504备份-2" d="M216.230454,59.489637 C215.138387,65.1926133 218.298822,70.5615456 223.362541,71.5742894 C228.508146,72.578321 233.459477,68.8457788 234.56133,63.2140868 C235.662688,57.4625949 232.562008,52.1309382 227.429243,51.1294343 C222.36851,50.1172878 217.326145,53.8894389 216.230454,59.489637 Z M227.037011,53.0905956 C231.033854,53.8704788 233.501638,58.1138639 232.597782,62.8340029 C231.700073,67.4222523 227.75772,70.3941796 223.750168,69.6122181 C219.823866,68.8269466 217.299853,64.5391655 218.194002,59.8697208 C219.084661,55.3175068 223.111045,52.3054026 227.037011,53.0905956 Z"></path>
        <path fill="url(#linearGradient-1)" id="形状结合" d="M73.7961989,1.00148822 L161.426723,1.78092109 C162.829349,3.76109845 166.432911,4.64080754 168.205533,4.96367212 L168.107576,4.00787215 C168.107576,4.00787215 191.60191,11.1341155 192.604038,14.0291519 C192.604038,14.0291519 222.556529,35.2965345 229.34873,53.0007954 C229.682773,52.8894478 217.434542,77.7199521 209.306171,74.1568304 C190.703831,66.938012 178.409266,60.949979 174.788151,59.1338397 L174.788429,61.9085996 L185.923185,148.759691 C160.869985,171.919982 135.816786,156.55402 135.816786,156.55402 L115.774226,99.7667676 L98.6267032,159.560403 C73.7961989,169.358988 47.4068289,153.993026 47.4068289,153.993026 L53.4195967,106.447621 L60.1004499,63.0220751 C60.1004499,62.1484499 59.9885413,60.8159991 59.814897,59.2768423 C55.8659418,61.2477333 43.7237244,67.1170332 25.5827085,74.1568304 C17.3429896,77.7199521 5.0947588,52.8894478 5.54014901,53.0007954 C12.3323497,35.2965345 42.2848414,14.0291519 42.2848414,14.0291519 C43.2869694,11.1341155 66.7813031,4.00787215 66.7813031,4.00787215 L66.4193793,7.54827837 C67.3316195,5.74886786 67.8947786,5.12134768 67.8947786,5.12134768 C76.237494,3.98838633 74.1955886,1.42634873 73.8423751,1.048416 L73.8176751,1.02263034 C73.8039932,1.00872581 73.7961989,1.00148822 73.7961989,1.00148822 Z"></path>
        <path fill="#000000" id="形状结合备份" d="M58.967312,60.8114882 L59.0108362,61.2907501 L59.0550811,61.8790143 C59.0735388,62.156256 59.0864604,62.4078761 59.0936697,62.6325879 L59.099312,62.9464882 L52.431225,106.295564 L46.4147307,153.867561 C46.3643864,154.265655 46.5568757,154.655289 46.9036381,154.857201 L47.3493916,155.106613 L47.916702,155.41078 L48.5539374,155.740875 C48.6652968,155.797614 48.7792149,155.855189 48.8956642,155.913559 L49.6245179,156.273001 C51.7868274,157.322665 54.2345138,158.371334 56.9206457,159.349809 C69.5063154,163.934381 82.5283759,165.420946 94.7367557,161.933717 C96.1781808,161.521985 97.5976292,161.041541 98.9937747,160.490596 L99.0987614,160.44198 C99.3355504,160.315208 99.5130218,160.097368 99.5879565,159.83607 L115.872312,103.051488 L134.873795,156.88684 C134.950123,157.1031 135.098464,157.286555 135.293957,157.406457 L135.496011,157.525489 L135.902286,157.751871 L136.339351,157.983512 L136.827889,158.230864 C138.043832,158.833128 139.443591,159.433942 141.009456,159.993981 C146.895591,162.099185 153.42671,163.072328 160.316241,162.282822 C169.42423,161.239093 178.291105,157.17696 186.602007,149.493994 L186.685351,149.407087 C186.86626,149.194143 186.951064,148.913305 186.915066,148.632527 L175.788312,61.8504882 L175.788312,60.7464882 L176.849747,61.26798 L178.477195,62.0541407 L180.181144,62.8637677 L181.960824,63.6959045 L183.188971,64.2626953 L184.450207,64.8387819 L185.744306,65.4238807 L187.071038,66.0177084 L188.430177,66.6199815 L190.52915,67.5386062 L191.968309,68.1607527 L194.186245,69.1078589 L196.474535,70.0707785 L198.83241,71.0485549 L201.259102,72.0402314 L202.914748,72.7085991 L205.454428,73.7213168 L207.184688,74.4028261 L208.944396,75.089096 C211.770258,76.3285123 214.925775,74.9369218 218.319313,71.5577949 L218.805714,71.0616113 C219.45638,70.382191 220.115524,69.6317721 220.782512,68.8148017 L221.284214,68.1896649 C221.451931,67.9771728 221.620129,67.7605907 221.788798,67.5399881 L222.296204,66.8661882 L222.806375,66.1686822 C222.976885,65.9322755 223.147847,65.6919872 223.319249,65.4478869 C225.129627,62.8696587 226.873855,60.004398 228.379366,57.2386079 L228.749607,56.5509633 L229.094606,55.8954933 L229.409936,55.2814457 L229.691169,54.7180681 L229.910336,54.2643151 L230.0694,53.9215789 L230.190172,53.6459458 L230.269626,53.4445849 L230.317291,53.2963663 L230.339869,53.1743423 L230.356591,53.0528579 L230.359351,53.0147688 L230.355106,52.9400968 C230.353027,52.9263257 230.350168,52.9113939 230.346386,52.8945549 L230.311462,52.7646615 L230.275312,52.6454882 C229.312912,50.1156336 227.864729,47.4542092 225.978746,44.671459 C222.629696,39.7299656 217.97551,34.5058434 212.345334,29.1427114 C208.153562,25.1497595 203.665666,21.3101111 199.177977,17.760883 L198.02151,16.8528706 L196.910463,15.993257 L195.848316,15.1836639 L194.83855,14.425713 L193.619561,13.5283541 L193.383312,13.3574882 L193.322727,13.2627538 C192.815979,12.5184808 191.67031,11.7365633 189.878499,10.8491046 L189.291177,10.5652671 L188.660847,10.2739377 C188.552205,10.2247322 188.44177,10.1751946 188.329539,10.1253152 L187.634603,9.8218574 L186.896534,9.50971999 L186.115281,9.18842782 L184.862319,8.68828504 C184.012789,8.35444607 183.111926,8.01204621 182.165006,7.66235652 L180.710742,7.13251349 C178.401035,6.3018003 175.951663,5.4686216 173.482542,4.66245144 L171.262466,3.94641008 L168.397835,3.05092407 L168.284113,3.02332572 C167.792788,2.93344205 167.327715,3.22390554 167.166818,3.66570207 L167.149312,3.71948822 L167.079309,3.70270765 C164.860837,3.15977456 163.030454,2.31496 162.242747,1.20290375 C162.057084,0.940790379 161.756812,0.783817528 161.435617,0.780960647 L73.8050931,2.86874416e-05 C72.9299635,-0.00625609397 72.4844758,1.02155151 73.0378563,1.6541304 L73.1202297,1.74015731 C73.2928096,1.92492571 73.3653568,2.12868422 73.2677731,2.2944589 L73.2242947,2.36097779 C72.968842,2.71643849 72.3350892,3.08206965 71.2648041,3.4136033 L70.842871,3.53624364 C70.547789,3.61682304 70.2249688,3.6949255 69.8735005,3.76985934 L69.3246982,3.87979716 C69.2296123,3.89769523 69.1327074,3.91537365 69.0339693,3.93282161 L68.4194294,4.03465734 L67.773312,4.12748822 L67.7761185,4.10956876 C67.8447205,3.43849132 67.2471563,2.90579604 66.604749,3.023329 L66.3591576,3.09117623 L64.5575254,3.65144888 L62.641988,4.26175352 C59.7575532,5.19082688 56.8727953,6.16334811 54.178137,7.13251349 L52.723873,7.66235652 C52.0136828,7.92462379 51.3294,8.18279053 50.67325,8.43632051 L49.6222795,8.84790463 L48.4334845,9.32727593 L47.6919381,9.63564691 L46.9911245,9.93555815 C46.7643036,10.034167 46.5442639,10.1314385 46.3309974,10.2274452 L45.7115105,10.5117437 C45.6116468,10.5585186 45.5134744,10.6049955 45.4169926,10.6511833 L44.858379,10.9249156 C43.1536239,11.7812135 42.0584221,12.5397457 41.5661527,13.2627538 L41.505312,13.3574882 L40.8203712,13.8562059 L39.5522115,14.7981318 L38.5158201,15.5821065 L37.4287878,16.4169126 L36.2945954,17.3009283 C36.1018267,17.4522749 35.907238,17.6056044 35.7109019,17.760883 C31.2232135,21.3101111 26.7353169,25.1497595 22.5435456,29.1427114 C16.9133692,34.5058434 12.2591831,39.7299656 8.91013302,44.671459 L8.53878598,45.2263875 C6.95501564,47.6240339 5.7021301,49.9298937 4.8067651,52.1354206 L4.66131205,52.5034882 L4.64396639,52.5350792 C4.58122886,52.6596028 4.54280255,52.7959977 4.53173643,52.93331 C4.52044844,53.0733752 4.53460271,53.1770268 4.56217263,53.2930283 C4.57749252,53.3574874 4.59792956,53.4246606 4.62416652,53.4995018 L4.72029556,53.7496958 L4.85553554,54.0655448 L5.02920728,54.4466266 L5.15011349,54.7028361 L5.42265144,55.2627103 C5.47129644,55.3608901 5.52148845,55.4613685 5.57313151,55.5639427 L5.89963467,56.2029176 L6.25635626,56.8824647 C6.31807214,56.9985631 6.38085517,57.1159466 6.44460938,57.2344125 C7.91801074,59.9722371 9.66699914,62.8572084 11.4861196,65.4478869 L11.9982975,66.1675333 L12.5080857,66.8640196 C12.5928479,66.978147 12.677508,67.0912917 12.7620648,67.2034448 L13.2681548,67.864393 C17.8957584,73.8127095 22.2030466,76.7078001 25.9796197,75.0746875 L27.7747043,74.3746109 L29.5398898,73.679127 L31.2749219,72.9885394 L33.8203763,71.9625024 L36.2965555,70.9491896 L38.7026015,69.9496257 L41.0376562,68.9648353 L42.554496,68.3170219 L44.0391485,67.6765335 L45.4913595,67.0436737 L46.9108747,66.418746 L48.29744,65.8020542 L49.650801,65.1939017 L50.9707036,64.5945923 L52.8872667,63.7128728 L54.1224109,63.1369991 L55.9106446,62.2918563 L57.6207367,61.4700257 L58.967312,60.8114882 Z M75.313312,2.01448822 L160.941312,2.77648822 L161.111613,2.96341958 C162.581741,4.49712022 165.100049,5.41449281 168.026342,5.94748635 L168.141144,5.96178737 C168.5586,5.98984007 168.932889,5.75411309 169.105285,5.40140572 L169.118312,5.36748822 L171.138369,6.00632774 L171.633716,6.16543851 C174.498373,7.08814133 177.362706,8.05377702 180.033867,9.01448822 C181.258997,9.4551236 182.415864,9.88502716 183.493702,10.3014808 L184.467734,10.6828568 L185.123337,10.9463865 L186.059367,11.3336149 L186.65034,11.5854624 L187.484718,11.952187 L188.004784,12.1883783 L188.494729,12.4171943 L188.953549,12.6379991 L189.38024,12.850157 L189.773796,13.0530321 L190.133215,13.2459884 L190.45749,13.4283902 L190.745619,13.5996016 L190.996596,13.7589866 L191.209416,13.9059095 L191.383077,14.0397344 C191.511198,14.1456211 191.597481,14.2372016 191.63931,14.3128201 L191.659052,14.3562625 C191.727215,14.553178 191.85519,14.7238811 192.025096,14.8445206 L192.885614,15.4688937 L193.644014,16.0297964 L194.642431,16.7792335 C194.813287,16.9084712 194.98632,17.0398518 195.16146,17.1733413 L196.236973,17.9993107 L197.359515,18.8742517 C197.55033,19.0240651 197.742959,19.1758506 197.937329,19.3295741 C202.380064,22.8432493 206.82259,26.6440809 210.96588,30.5908512 C216.501105,35.863535 221.06548,40.9868477 224.323156,45.7935197 L224.678524,46.3245215 C226.193572,48.6177079 227.384508,50.8088224 228.226886,52.8825305 L228.281312,53.0204882 L228.100493,53.4131333 L227.894558,53.8393226 L227.623282,54.3826258 L227.317931,54.9771058 L226.982941,55.6134691 L226.622747,56.2824223 C225.151249,58.9857278 223.445579,61.7876478 221.682462,64.2985696 L221.18344,64.9992795 L220.687953,65.6750173 C220.605681,65.7855393 220.523566,65.8950059 220.441614,66.0034095 L219.951898,66.6410163 C219.708059,66.9533823 219.465779,67.2560474 219.225198,67.5488098 L218.746345,68.1210711 C215.172558,72.3131072 212.002131,74.2467623 209.707648,73.2409613 L207.987062,72.5699164 L206.295014,71.9035909 L203.810888,70.9135205 L201.392097,69.9355316 L199.8162,69.2906844 L197.5078,68.3347822 L195.266535,67.3933025 L193.809988,66.7740953 L191.682112,65.8586037 L189.623171,64.9598754 L187.633837,64.0787882 L186.34662,63.5016309 L184.474801,62.6518963 L182.674389,61.8221437 L181.514119,61.28051 L179.83422,60.4860114 L178.754917,59.9686932 L177.197405,59.2118871 L175.714225,58.4788669 C175.553582,58.3987742 175.394328,58.3191382 175.236467,58.2399643 C174.571455,57.9064335 173.788076,58.3899756 173.788151,59.13394 L173.788429,61.9086999 L173.796548,62.0357639 L184.864312,148.371488 L185.244362,148.025388 C177.245755,155.419656 168.77475,159.300431 160.088541,160.295827 C153.528822,161.047537 147.298475,160.11921 141.682983,158.110803 C140.192721,157.577804 138.864058,157.007506 137.715579,156.438658 L137.261563,156.208821 L136.858242,155.995127 L136.636312,155.872488 L116.717217,99.4339475 L116.669513,99.3196097 C116.281058,98.5208818 115.069718,98.5958285 114.812973,99.4911009 L97.803312,158.804488 L98.2596316,158.630211 C96.9244651,159.157093 95.5667021,159.616658 94.1874415,160.010633 C82.4476026,163.364027 69.8296166,161.92359 57.6051821,157.470604 C54.9861267,156.516563 52.6009554,155.494678 50.4979215,154.473788 L50.1382782,154.297822 L49.4638636,153.959854 L48.8503908,153.642101 L48.483312,153.445488 L54.4116948,106.573085 L61.0888216,63.1741323 L61.1004499,63.0220751 L61.0986476,62.8132701 L61.0843423,62.3504095 L61.0560205,61.8280775 C61.0501489,61.7361237 61.0437058,61.6417351 61.0366976,61.5449332 L60.9879158,60.9353347 L60.9258707,60.2688523 L60.8508634,59.5465211 C60.8372988,59.4215361 60.8232066,59.2942671 60.8085932,59.1647357 C60.7307093,58.474385 59.9899448,58.0718493 59.3683336,58.3820903 L57.8336124,59.1412443 L56.7681237,59.6607362 L55.6690236,60.1906147 L54.5365366,60.7306017 L52.775696,61.5589267 L51.5607226,62.1229673 L49.677204,62.9860683 L47.7210879,63.8687827 L46.3770524,64.4676914 L45.0013121,65.0746215 L42.8787457,65.999448 L40.6861051,66.9407572 L38.4241473,67.89761 L36.8780398,68.5436833 L35.3016853,69.1959692 L32.8809313,70.1854379 L31.2299408,70.8520377 L29.5494885,71.5238762 L27.8397985,72.2006749 L25.2209338,73.2245649 C23.0134359,74.1785797 20.071886,72.5564893 16.7746009,68.9280156 L16.301181,68.3960749 C15.9047159,67.9415194 15.5034645,67.4589133 15.0980652,66.9492177 L14.6096357,66.3246417 C14.5279126,66.218399 14.4460338,66.1110882 14.3640043,66.0027168 L13.8700614,65.3398241 L13.3727491,64.6518483 C13.2895965,64.5351159 13.2063138,64.4173537 13.122906,64.2985696 C11.3526008,61.7774107 9.6438571,58.9588234 8.20576955,56.2866177 L7.84711157,55.6120084 L7.51634329,54.9737157 L7.21809592,54.3815745 L6.95700067,53.8454196 L6.71214087,53.3182509 L6.59531205,53.0504882 L6.47379696,53.3589874 C7.38373053,50.9871933 8.76022361,48.4575186 10.5657235,45.7935197 C13.8233997,40.9868477 18.3877743,35.863535 23.9229988,30.5908512 C28.066289,26.6440809 32.5088155,22.8432493 36.9515502,19.3295741 L38.096295,18.4307623 C38.2834095,18.2849274 38.4686374,18.1410988 38.6519059,17.9993107 L39.7274197,17.1733413 L40.7524094,16.3979835 L42.0032652,15.4688937 L42.8637835,14.8445206 C42.9997082,14.748009 43.1087972,14.6194567 43.1818953,14.4710755 L43.2298275,14.3562625 C43.2777127,14.2179276 43.5055065,14.0144199 43.8922836,13.7589866 L44.1432605,13.5996016 C44.1882138,13.5720342 44.2347151,13.5439741 44.2827435,13.5154344 L44.5890711,13.3385484 L44.9310436,13.1507899 L45.3076566,12.9527947 L45.7179058,12.7451987 L46.3941501,12.4171943 L46.8840953,12.1883783 L47.4041611,11.952187 L48.2385389,11.5854624 L49.1350383,11.2057202 L49.7655426,10.9463865 L50.4211454,10.6828568 L50.758045,10.5497172 C52.0129985,10.0565594 53.3848559,9.5432501 54.8550123,9.01448822 C57.1445784,8.19102189 59.5760676,7.3639368 62.0280349,6.5633716 L64.2332365,5.85212919 L65.632312,5.40948822 L65.4245639,7.44658176 C65.3118369,8.5492981 66.8100855,8.98912513 67.3113074,8.00045567 L67.5899676,7.46636543 L67.8532302,6.99185698 C67.9809026,6.76923048 68.1025547,6.56834474 68.2178169,6.38829617 L68.440312,6.05348822 L68.7755431,6.00324496 C72.2761736,5.45367017 74.2469338,4.57360537 74.9913273,3.30903331 C75.2310973,2.90171303 75.3326318,2.47654387 75.3164794,2.05747361 L75.313312,2.01448822 Z"></path>
      </g>
      <g transform="translate(94.001831, 189.528811)" id="衣服线条">
        <path fill="#64BEF8" id="形状结合" d="M104.221309,0 C104.221309,0 104.444005,3.56312169 107.004998,5.34468254 C107.004998,5.34468254 88.1176635,13.2755294 60.5500225,14.0472934 C63.1330852,33.6599499 62.4450616,58.0332575 61.4690608,74.5117342 C77.8773353,73.7048215 96.1927845,70.4109344 114.576632,62.4659771 L115.244717,68.478745 C115.244717,68.478745 96.5729981,80.2904126 61.0199326,81.3761154 C60.4951867,88.6434513 60.016331,93.1979017 60.016331,93.1979017 L56.8985995,113.685851 L53.4468254,107.450388 L53.8922156,92.5298164 C54.4839116,88.8613009 54.9612714,85.1553662 55.3408653,81.4534883 C39.7760335,81.4180109 21.28491,79.3087362 0,73.4893849 L0.334042658,66.6971841 C0.334042658,66.6971841 23.8505209,75.2276713 55.9282383,74.6925014 C57.9508025,46.7733702 54.9308704,20.5450655 54.0960615,14.0911587 C40.1927624,13.8956026 24.4513671,11.7665107 8.0170238,6.01276785 C8.0170238,6.01276785 9.46454199,3.22907903 9.35319444,0.334042658 C9.35319444,0.334042658 51.6652645,16.7021329 104.221309,0 Z"></path>
        <path fill="#000000" id="形状结合备份-2" d="M105.139444,-1.34106306 L103.918439,-0.953031793 C74.8254949,8.29260728 46.8277693,8.36650274 22.3194232,2.94600444 C18.7978159,2.16713237 15.6731544,1.33319216 12.9819448,0.500128221 L12.2067882,0.256250097 L11.1574951,-0.0879611264 L10.3668312,-0.360507404 L9.71398197,-0.598605377 L8.29547873,-1.14734216 L8.35393326,0.372475781 C8.39888282,1.54116417 8.16365768,2.80441029 7.74085845,4.05473962 C7.6382331,4.35822997 7.53017489,4.64369912 7.42106313,4.90692823 L7.26316236,5.27139956 L7.18326823,5.44338506 L7.129807,5.55141512 L6.59740369,6.57526764 L7.68658524,6.95659536 L8.77776668,7.3337343 C23.3333869,12.2994503 38.1482805,14.7561017 52.9703339,15.0714201 L53.213,15.075 L53.338186,16.0895818 L53.5691979,18.0672114 L53.7208825,19.4434926 L53.8701906,20.8647653 L54.0166782,22.3299174 L54.2301504,24.6074861 L54.367645,26.1774704 L54.5007655,27.7874412 L54.6290682,29.4362862 L54.7521091,31.1228933 L54.8694444,32.8461502 L54.9806301,34.6049448 L55.0852225,36.3981646 L55.18338,38.2401993 C55.7747047,49.9072418 55.7866642,61.5825376 55.0529266,72.8453907 L54.993,73.704 L55.9115571,73.6926405 C41.5946171,73.9314978 27.9264984,72.41076 15.4205587,69.7291524 C11.3552469,68.8574409 7.71358126,67.9238867 4.54900312,66.9910351 L3.63577133,66.717703 L2.7916751,66.457036 L2.01764868,66.2101291 L1.32052946,65.9800936 L0.675045621,65.7571219 L-0.598218462,65.2952516 L-1.03823379,74.24223 L1.02962978,74.8039921 C19.5410122,79.7619911 36.9047022,82.1943432 53.0881007,82.4342114 L54.229,82.447 L54.3460815,81.3514823 C53.9582534,85.133662 53.4792313,88.8101912 52.9049744,92.370584 L52.8926608,92.4999789 L52.4390863,107.694725 L57.4455531,116.738665 L61.0049498,93.3483437 L61.1285422,92.121955 L61.3172797,90.1024158 L61.5082302,87.929522 L61.7000763,85.6122177 L61.8911708,83.1574992 L61.951,82.345 L63.2327785,82.2951273 C77.3314213,81.6846164 89.7434783,79.3842822 100.42556,75.9184737 C104.843535,74.485059 108.658924,72.9475837 111.863645,71.4077669 C112.285917,71.2048721 112.686295,71.0072579 113.064729,70.8155943 L113.792319,70.4403999 C114.025085,70.3181121 114.248082,70.1986677 114.461294,70.082265 L114.98163,69.7933288 L115.35281,69.5801432 L115.779325,69.3238454 L116.307637,68.9896369 L115.421188,61.0115946 L114.179923,61.5480325 L113.150384,61.9881569 C97.0026334,68.8160594 79.9973513,72.4804618 62.532,73.454 L62.680207,70.763224 C62.7025012,70.3389426 62.7242814,69.9152099 62.7455427,69.4920471 L62.8668423,66.9600766 L62.9754437,64.4427967 L63.0711035,61.9412224 C63.6800077,44.9031043 63.3654211,29.0361327 61.7779852,15.7978451 L61.681,15.011 L63.0536444,14.9581637 C73.7354576,14.4913414 83.8143556,12.963049 93.0729874,10.6974373 C97.0186177,9.7319311 100.542455,8.69689559 103.598398,7.66093573 L104.484303,7.35586317 C104.626426,7.30612534 104.765774,7.25695796 104.90233,7.20838601 L105.688029,6.9242993 L106.798798,6.50431073 L107.392155,6.2666966 L109.069217,5.56249327 L107.576063,4.52377733 C106.935997,4.07851424 106.425439,3.46069662 106.031996,2.70528486 C105.716123,2.09880988 105.493662,1.43966526 105.3515,0.779299765 L105.289957,0.466986922 L105.248693,0.20853489 C105.243367,0.170348609 105.238782,0.13470702 105.234886,0.101760371 L105.219362,-0.0623782862 L105.139444,-1.34106306 Z M103.407,1.303 L103.436009,1.43213232 C103.598813,2.11141479 103.861292,2.8671529 104.258168,3.6291537 L104.423986,3.93215443 C104.595315,4.23024715 104.783254,4.51342379 104.988525,4.77995595 L105.157,4.987 L104.621247,5.18448486 L103.821958,5.4687225 C103.683189,5.51728306 103.541655,5.56642081 103.397372,5.61611084 L102.956293,5.76681284 C99.9538373,6.7846406 96.485438,7.80339271 92.5976079,8.754755 C82.7582947,11.162461 71.975267,12.7270486 60.5220382,13.047685 L59.4138207,13.0787099 L59.5585842,14.1778696 C60.6723718,22.6346262 61.2340696,32.268778 61.3412381,42.6596424 L61.3572813,44.8976852 C61.3633861,46.3972309 61.360357,47.9116064 61.3484785,49.4395854 L61.3240591,51.7416031 L61.2865789,54.063106 C61.2499626,56.005555 61.1999635,57.967343 61.137137,59.9460745 L61.0556237,62.3285318 C61.026424,63.125293 60.9952074,63.9246118 60.9620095,64.726335 L60.8565078,67.1385641 L60.7393317,69.5642994 L60.6106948,72.002621 C60.5883121,72.4100057 60.5654607,72.8178765 60.5421451,73.2262142 L60.4049084,75.5652747 L61.5181787,75.5105272 L62.6474446,75.4512697 C79.953496,74.4859472 96.8262081,70.9088441 112.883559,64.2675869 L113.731,63.913 L114.179,67.948 L113.80053,68.1627408 L113.187163,68.4975247 L112.515468,68.8502961 C112.398664,68.9105245 112.279433,68.9714529 112.157777,69.0330568 L111.398768,69.4105875 C111.267423,69.4747943 111.133658,69.5396271 110.997474,69.6050613 C107.87211,71.1067482 104.139723,72.6107766 99.8083334,74.0160986 C89.0314557,77.5126636 76.4466853,79.8074096 62.0967327,80.3391639 L60.0875129,80.404123 L59.8968643,83.0066941 L59.7701497,84.6514101 L59.5791766,87.0054116 L59.3885854,89.2174928 L59.2092626,91.1809739 L59.0218128,93.0933379 L56.351,110.632 L54.454,107.207 L54.889,92.625 L54.8794567,92.6890488 C55.4600078,89.0896317 55.9439905,85.3750296 56.335649,81.5554944 L56.4483911,80.4560102 L55.3431446,80.4534909 L54.2313822,80.4474583 C37.8973888,80.3075417 20.3252605,77.9016433 1.54599819,72.8718007 L1.038,72.734 L1.267,68.069 L2.1907838,68.364634 C2.32857245,68.4078817 2.46928803,68.4516978 2.61291122,68.4960593 L3.50938672,68.7685905 C3.6645629,68.8150423 3.82260799,68.8619938 3.98350263,68.9094222 C7.19511115,69.8561374 10.8853748,70.8021499 15.0012369,71.6847007 C27.648212,74.3965501 41.465856,75.9339243 55.9449195,75.6923623 L56.8595308,75.6771033 L56.9256246,74.7647557 C57.8305898,62.2727702 57.8070354,49.2593427 57.0821071,36.2865772 L56.9768916,34.4827026 L56.8650344,32.7133687 L56.7469803,30.9796833 L56.6231739,29.2827543 L56.49406,27.6236896 L56.3600835,26.0035972 L56.221689,24.4235849 L56.0793212,22.8847607 L55.933425,21.3882325 L55.7844451,19.9351082 L55.5561661,17.8392276 L55.4014227,16.4994602 L55.2451522,15.2069743 L54.9766323,13.1034454 L54.1101255,13.0912576 L53.0133449,13.0718821 C38.7746648,12.7690048 24.5467243,10.4638725 10.5572854,5.82232436 L9.371,5.422 L9.45633646,5.19934318 C9.51554029,5.04081115 9.57555909,4.8725735 9.63546939,4.69540285 L9.76489131,4.29583591 C10.0126443,3.4954351 10.192798,2.68814313 10.2863718,1.88674806 L10.301,1.732 L10.8612665,1.92166262 L11.5956039,2.16057519 L12.3905317,2.41068586 C15.1331665,3.2596685 18.3109068,4.10777487 21.8875216,4.89881293 C46.1648552,10.2682183 73.8056871,10.3160089 102.561832,1.56347329 L103.407,1.303 Z"></path>
      </g>
      <g transform="translate(61.267778, 74.622387)" id="头">
        <path fill="url(#linearGradient-2)" id="帽子" d="M90.0780423,1.66596268 C139.293661,1.66596268 179.156085,34.1794481 179.156085,74.3759147 C179.156085,114.572381 139.293661,147.085867 90.0780423,147.085867 C40.8624239,147.085867 1,114.572381 1,74.3759147 C1,34.1794481 40.8624239,1.66596268 90.0780423,1.66596268 Z"></path>
        <path fill="#000000" id="帽子备份" d="M90.0780423,0.665962677 C40.3396107,0.665962677 0,33.5855931 0,74.3759147 C0,115.166236 40.3396107,148.085867 90.0780423,148.085867 C139.816474,148.085867 180.156085,115.166236 180.156085,74.3759147 C180.156085,33.5855931 139.816474,0.665962677 90.0780423,0.665962677 Z M90.0780423,2.66596268 C138.791349,2.66596268 178.156085,34.7900341 178.156085,74.3759147 C178.156085,113.961795 138.791349,146.085867 90.0780423,146.085867 C41.3647351,146.085867 2,113.961795 2,74.3759147 C2,34.7900341 41.3647351,2.66596268 90.0780423,2.66596268 Z"></path>
        <path fill="#64BEF8" id="蓝色" d="M98.0950661,2.33404799 C85.8468353,30.5049789 91.0801702,73.1468356 91.0801702,73.1468356 C85.5127926,73.1468356 81.7269758,73.1468356 81.7269758,73.1468356 C77.2730737,34.7319299 88.7418716,2.00000534 88.7418716,2.00000534 L98.0950661,2.33404799 Z"></path>
        <path fill="#000000" id="蓝色备份" d="M98.1307576,0.334685139 L88.7775632,0.00064248081 C88.3364511,-0.015111521 87.9371835,0.260204679 87.7950984,0.678104021 L87.512672,1.55095171 L87.3359729,2.11938663 L87.0025064,3.22777335 L86.6459255,4.4606014 L86.5223585,4.89874346 C85.5738865,8.28297207 84.6259738,12.1405972 83.7415396,16.4052258 C79.961182,34.6336278 78.5071615,54.0587152 80.7336301,73.2620062 C80.7921054,73.7663557 81.2192478,74.1468356 81.7269758,74.1468356 L91.0801702,74.1468356 C91.6796597,74.1468356 92.1444337,73.6229983 92.073057,73.0277731 L91.9544254,71.9305982 L91.9018286,71.4027132 L91.8049116,70.370998 L91.7087726,69.2667723 L91.5678008,67.4791205 L91.5220797,66.8492812 C90.5768627,53.5443767 90.7078545,39.1831875 92.6531023,25.7149987 C93.9671565,16.6169659 96.0554862,8.53306886 99.0121361,1.73277411 C99.2931863,1.08635871 98.8351787,0.359843037 98.1307576,0.334685139 Z M89.459,2.02596268 L96.61,2.28096268 L96.5629093,2.39763509 C93.8527059,9.05887087 91.9190899,16.8060738 90.6736424,25.4290998 C88.7048204,39.0605073 88.5726086,53.5554493 89.5271077,66.9910094 L89.6202456,68.2472364 L89.7158629,69.4350334 L89.8131449,70.5522873 L89.965,72.1459627 L82.621,72.1459627 L82.7203215,73.0316651 C80.5211867,54.0641268 81.9597269,34.8458496 85.6998692,16.8113605 C86.5122081,12.894366 87.3781639,9.32662226 88.2475017,6.16167078 L88.5697447,5.00733696 L88.8059019,4.18566914 L89.1412039,3.05614058 L89.459,2.02596268 Z"></path>
        <path fill="#F8E3DE" id="椭圆-5" d="M90.1893898,73.4851343 C122.48018,73.4851343 148.646855,88.9624441 148.646855,108.114223 C148.646855,127.154655 122.48018,142.631965 90.1893898,142.631965 C57.8985995,142.631965 31.620577,127.154655 31.620577,108.114223 C31.620577,88.9624441 57.8985995,73.4851343 90.1893898,73.4851343 Z"></path>
        <path fill="#000000" id="椭圆-5备份" d="M90.1893898,72.4851343 C57.3838462,72.4851343 30.620577,88.2902145 30.620577,108.114223 C30.620577,127.844769 57.4131002,143.631965 90.1893898,143.631965 C122.944558,143.631965 149.646855,127.856528 149.646855,108.114223 C149.646855,88.2784272 122.973738,72.4851343 90.1893898,72.4851343 Z M90.1893898,74.4851343 C122.013841,74.4851343 147.646855,89.6625771 147.646855,108.114223 C147.646855,126.471095 121.984804,141.631965 90.1893898,141.631965 C58.3726913,141.631965 32.620577,126.457818 32.620577,108.114223 C32.620577,89.6758811 58.343575,74.4851343 90.1893898,74.4851343 Z"></path>
        <g transform="translate(50.256522, 92.302871)" id="左眼">
          <path fill="#000000" id="形状-11" d="M1.96335277,0 C13.3208032,0.334042658 20.0016563,6.34681051 20.0016563,6.34681051 C21.2264794,8.46241401 19.2222235,7.46028604 19.2222235,7.46028604 C12.0959801,4.0085119 0.181791923,0.77943287 0.181791923,0.77943287 C-0.7089885,0.111347553 1.96335277,0 1.96335277,0 Z"></path>
          <path fill="#000000" id="椭圆-1" d="M11.5392423,13.8070966 C15.3250591,13.5844014 18.7768332,16.5907854 19.2222235,20.5992973 C19.6676137,24.6078092 16.8839248,28.0595833 13.0981081,28.2822784 C9.2009437,28.5049735 5.74916956,25.4985896 5.41512691,21.4900777 C4.96973669,17.4815658 7.75342552,14.0297917 11.5392423,13.8070966 Z"></path>
          <path fill="#FFFFFF" id="椭圆-2" d="M13.7661934,17.2588707 C14.9910164,17.1475231 15.9931444,18.2609987 16.104492,19.7085169 C16.2158395,21.0446875 15.3250591,22.2695106 14.2115836,22.2695106 C13.0981081,22.3808581 11.9846325,21.2673826 11.873285,19.931212 C11.7619374,18.4836938 12.6527178,17.3702182 13.7661934,17.2588707 Z"></path>
          <path fill="#FFFFFF" id="椭圆-3-拷贝" d="M14.5456262,23.6056812 C15.102364,23.6056812 15.5477542,23.8283763 15.5477542,24.162419 C15.5477542,24.6078092 15.102364,24.8305043 14.5456262,24.8305043 C13.9888885,24.8305043 13.4321507,24.6078092 13.4321507,24.162419 C13.4321507,23.8283763 13.9888885,23.6056812 14.5456262,23.6056812 Z"></path>
        </g>
        <g transform="translate(105.604297, 92.302871)" id="右眼">
          <path fill="#000000" id="形状-11" d="M20.3276576,0.77943287 C20.3276576,0.77943287 8.41346948,4.0085119 1.17587855,7.46028604 C1.17587855,7.46028604 -0.828377403,8.46241401 0.396445678,6.34681051 C0.396445678,6.34681051 7.07729885,0.334042658 18.5460968,0 C18.5460968,0 21.1070905,0.111347553 20.3276576,0.77943287 L20.3276576,0.77943287 Z"></path>
          <path fill="#000000" id="椭圆-1" d="M15.0943227,21.4900777 C14.6489324,25.4985896 11.1971583,28.5049735 7.41134151,28.2822784 C3.51417716,28.0595833 0.841835889,24.6078092 1.17587855,20.5992973 C1.62126876,16.5907854 5.0730429,13.5844014 8.85885969,13.8070966 C12.756024,14.0297917 15.5397129,17.4815658 15.0943227,21.4900777 Z"></path>
          <path fill="#FFFFFF" id="椭圆-2" d="M10.6404205,19.931212 C10.529073,21.2673826 9.52694501,22.3808581 8.30212193,22.2695106 C7.1886464,22.2695106 6.29786598,21.0446875 6.40921353,19.7085169 C6.52056108,18.2609987 7.52268906,17.1475231 8.74751214,17.2588707 C9.86098767,17.3702182 10.7517681,18.4836938 10.6404205,19.931212 Z"></path>
          <path fill="#FFFFFF" id="椭圆-3-拷贝" d="M5.96382332,23.6056812 C6.52056108,23.6056812 6.96595129,23.8283763 6.96595129,24.162419 C6.96595129,24.6078092 6.52056108,24.8305043 5.96382332,24.8305043 C5.40708556,24.8305043 4.85034779,24.6078092 4.85034779,24.162419 C4.85034779,23.8283763 5.40708556,23.6056812 5.96382332,23.6056812 Z"></path>
        </g>
        <path fill="#64BEF8" id="口罩" d="M34.4042658,120.362454 C34.4042658,120.362454 60.014203,123.814228 78.2752017,120.028411 C78.2752017,120.028411 90.9688227,115.797204 103.551096,119.805716 C103.551096,119.805716 116.022022,118.803588 146.865294,118.135503 C146.865294,118.135503 137.5121,142.743312 91.1915178,142.631965 C91.1915178,142.631965 43.7574603,142.631965 34.4042658,120.362454 Z"></path>
        <path fill="#000000" id="口罩备份" d="M103.551096,119.805716 L105.602035,119.662936 L109.277324,119.444913 L112.82365,119.260815 L116.799409,119.076392 L121.544737,118.880279 L125.148573,118.74593 L129.113561,118.610715 L134.97522,118.432074 L139.812636,118.301573 L145.036697,118.175978 L146.865294,118.135503 L146.758315,118.390613 L146.628065,118.675948 L146.510211,118.92028 L146.284148,119.363021 L146.098979,119.706144 L145.884956,120.085342 L145.64098,120.498649 C145.59776,120.570267 145.553246,120.643224 145.507415,120.717479 L145.216444,121.178261 L144.892766,121.668235 C140.354131,128.387103 126.800264,142.366134 92.4879818,142.628593 L90.8545584,142.62928 L89.9078753,142.611069 L88.7507804,142.575077 L87.6694407,142.530465 L86.4191335,142.467093 L85.0125024,142.381668 L83.9941456,142.310841 L82.9156772,142.227773 L81.7808434,142.13149 L80.5933906,142.021016 L79.3570649,141.895375 C79.147146,141.873116 78.9353469,141.850185 78.7217455,141.826562 L77.4191349,141.676341 C62.6457625,139.90239 40.4829069,134.835409 34.4042658,120.362454 L35.4536622,120.493099 L37.2137873,120.691152 L39.0186759,120.874598 L40.8057329,121.039154 L42.402806,121.172674 L43.6899712,121.271216 L45.5151874,121.397179 L46.9589251,121.485338 L48.4608664,121.566162 L49.4918593,121.615114 L50.5447653,121.659523 L52.1617509,121.716496 L53.2625185,121.747303 L54.9438808,121.781467 L56.0826225,121.795465 L57.81353,121.802011 C58.0072079,121.801721 58.2013045,121.801082 58.3957868,121.800083 L59.5670455,121.789677 C59.9588321,121.78471 60.3518979,121.778216 60.7459791,121.77011 L61.9310057,121.740869 C62.3268543,121.729453 62.7234546,121.716339 63.1205432,121.701441 L64.3130096,121.651313 C64.5119101,121.642039 64.7108668,121.632297 64.9098467,121.622077 L66.1037401,121.554937 C70.0825534,121.311451 74.0442637,120.868252 77.7252,120.139825 L78.2794062,120.027019 L78.537602,119.945843 L79.0612391,119.792651 L79.6959964,119.620434 L80.3255947,119.46135 L81.0572398,119.289375 L81.669492,119.155293 L82.1065627,119.064786 L82.8037305,118.929092 L83.2951714,118.839691 L83.8071059,118.751955 L84.6118648,118.624999 L85.4587016,118.505714 L86.0454414,118.431618 L86.6490902,118.362676 L87.2689313,118.299588 L87.9042478,118.243052 L88.5543227,118.193766 L89.2184392,118.152428 C89.3302555,118.146239 89.4426271,118.140411 89.555539,118.134957 L90.2393736,118.10685 L90.9354577,118.088437 L91.6430742,118.080415 C93.6636484,118.073067 95.8144604,118.199261 98.0221341,118.530456 L98.8035547,118.655978 C100.37064,118.92451 101.961756,119.299378 103.551096,119.805716 Z M82.5530142,121.015016 C81.7082788,121.184873 80.9348439,121.364391 80.2419974,121.544863 L79.5158159,121.742416 L78.9076572,121.925778 C78.8334303,121.95052 78.7578155,121.970885 78.6812026,121.986769 C74.7298697,122.805947 70.2873654,123.33132 65.438695,123.596829 C57.6168724,124.025145 49.2637635,123.7665 41.1363876,123.075125 L39.7646421,122.953847 L38.4565432,122.82933 L37.976,122.781 L38.0762603,122.930669 C42.7350519,129.744056 52.1767559,134.534734 64.9681496,137.50147 L65.5701941,137.639201 C71.0732632,138.880911 76.8281655,139.705509 82.5240571,140.188497 C83.8188155,140.298287 85.0632792,140.386115 86.2480578,140.454368 L87.6405424,140.527028 L88.6602866,140.570335 L89.8935154,140.610394 L90.8723168,140.629458 L91.0753167,140.631386 L92.0356452,140.631386 C110.428807,140.556809 124.0821,136.563378 133.73417,129.884225 C137.254816,127.447968 140.024034,124.791829 142.133389,122.068849 C142.566858,121.509281 142.953016,120.973506 143.294303,120.466775 L143.462,120.213 L139.204352,120.317841 L135.402066,120.42073 L131.738046,120.528691 L128.211324,120.641505 L123.13199,120.820978 L119.387952,120.967919 L115.256898,121.14731 L113.337705,121.237879 L109.788405,121.419952 L107.366632,121.557468 L104.593054,121.734865 L103.711294,121.79929 C103.452242,121.820107 103.191617,121.790235 102.943993,121.711346 L102.635453,121.614805 C96.144817,119.62058 89.1462106,119.689275 82.5530142,121.015016 Z"></path>
        <path fill="#F9E2DC" fill-opacity="0.1" id="护目镜" d="M34.5156134,90.4099623 C34.5156134,90.4099623 93.4184688,78.273079 146.085861,91.3007427 C146.085861,91.3007427 154.102885,94.7525168 151.430544,100.431242 C151.430544,100.431242 148.646855,119.583021 137.734795,125.818484 C137.734795,125.818484 116.467412,142.85466 99.7652794,120.251106 C99.7652794,120.251106 94.3092493,112.456778 87.1830059,118.580893 C87.1830059,118.580893 69.2560499,143.968135 42.5326372,123.925576 C42.5326372,123.925576 30.1730588,110.786564 28.5028455,98.7610287 C28.5028455,98.7610287 28.5028455,91.5234378 34.5156134,90.4099623 L34.5156134,90.4099623 Z"></path>
        <path fill="#000000" id="护目镜备份" d="M70.4846383,84.9721476 C61.1338463,85.5890189 52.3531778,86.5562143 44.396439,87.7277988 L42.9067046,87.9511143 L41.4778988,88.1730537 L40.1111668,88.3929599 L38.179962,88.7175691 L36.6042937,88.9959151 L34.8408031,89.325886 L34.3138038,89.4305375 C31.5430933,89.9434267 29.6518877,91.6472155 28.5465122,94.1036055 C28.0874245,95.1238003 27.7953419,96.2055878 27.6333577,97.2854825 C27.6089774,97.4480182 27.5886302,97.6019943 27.5718233,97.7464105 L27.5315311,98.1499789 C27.5213122,98.2742748 27.5141408,98.3880105 27.5095241,98.4901856 L27.5028455,98.7610287 L27.5123533,98.8985971 C27.6459706,99.8606419 27.8469594,100.844433 28.1122057,101.848513 C29.249207,106.15259 31.5206391,110.711728 34.5914072,115.341736 C36.1669254,117.717252 37.8534194,119.960098 39.5402696,122.003377 L40.1167393,122.693611 C40.2103288,122.804346 40.3026311,122.912903 40.3935822,123.019242 L40.9225618,123.630356 L41.4087021,124.178244 L41.747986,124.550521 C41.7686999,124.572819 41.78747,124.592903 41.804256,124.610748 L41.9326372,124.725576 C50.0088301,130.78272 57.8435282,133.196721 65.3210355,132.522823 C71.228709,131.990404 76.5813387,129.577005 81.3066328,125.895005 C83.1877754,124.429198 84.8397378,122.859587 86.251502,121.288418 C86.6480333,120.847113 87.003136,120.430266 87.3160513,120.044385 L87.6481519,119.626405 L87.921,119.266 L87.8347726,119.339313 C91.2626492,116.393481 94.3639656,116.704038 97.1989926,119.017135 C97.6915236,119.418991 98.130242,119.851062 98.5073644,120.281954 L98.704696,120.513821 L98.851407,120.697046 L98.9460474,120.824569 C101.859337,124.767774 105.016637,127.694039 108.396105,129.694249 C116.430738,134.449718 125.000204,133.769413 133.111611,129.795057 C134.526424,129.10184 135.807116,128.358939 136.9328,127.614713 L137.385302,127.30953 C137.45691,127.260227 137.526599,127.211736 137.594349,127.164105 L137.9774,126.88903 L138.299,126.646 L138.230934,126.686727 C142.394837,124.307354 145.681338,120.065907 148.222839,114.509066 C149.617789,111.459091 150.701547,108.20024 151.513869,104.942531 C151.798065,103.802802 152.028248,102.743774 152.20903,101.791899 L152.334254,101.102686 L152.398,100.716 L152.335363,100.857039 C153.525263,98.3285005 153.014115,95.9455883 151.274635,93.8808248 C150.132525,92.5251411 148.612901,91.4550867 147.057384,90.6587513 L146.770381,90.5159707 L146.48132,90.3822588 L146.325982,90.3299996 C123.170592,84.6023452 97.2155084,83.2087133 70.4846383,84.9721476 Z M144.657266,91.9819482 L145.759,92.25 L145.983022,92.3571173 L146.152644,92.4423963 C149.77568,94.2972143 151.980413,96.9142327 150.525725,100.005445 C150.483707,100.094734 150.455137,100.18975 150.440943,100.287405 L150.363199,100.763656 L150.244153,101.418724 C150.070192,102.334686 149.847997,103.356963 149.57329,104.45864 C148.788746,107.604945 147.742796,110.750108 146.404043,113.677214 C144.020949,118.887707 140.979892,122.812392 137.238656,124.950241 L137.109602,125.038014 L136.793518,125.277068 C136.519954,125.477982 136.197773,125.703085 135.8298,125.946363 C134.772744,126.645218 133.565696,127.345398 132.231622,127.999056 C124.667832,131.705095 116.778375,132.331416 109.414791,127.973122 C106.273655,126.113974 103.313746,123.370656 100.569538,119.656827 C100.184352,119.105988 99.4670308,118.286392 98.4633485,117.467488 C94.9390973,114.592053 90.7754359,114.175117 86.5312391,117.822474 C86.4689576,117.875997 86.4135062,117.936988 86.3661373,118.004069 L86.0666394,118.402142 L85.9723823,118.522441 C85.6335658,118.952084 85.2301159,119.432758 84.7638368,119.951686 C83.4271918,121.439254 81.8599363,122.928381 80.0773435,124.317397 C75.6338748,127.779795 70.6291448,130.036333 65.1415165,130.530896 L64.7143996,130.565728 C58.015482,131.054649 50.9681224,128.871275 43.6031715,123.474425 L43.201,123.176 L42.7866746,122.719096 L42.1735234,122.021508 C42.0879191,121.922619 42.0009023,121.821495 41.9125372,121.718174 L41.3666846,121.072227 C41.2731848,120.960285 41.1784656,120.846228 41.0825917,120.730096 C39.4376322,118.73756 37.7923164,116.549477 36.2581455,114.236302 C33.2980749,109.7732 31.1186943,105.398825 30.045873,101.337699 L29.9059482,100.78334 C29.7733017,100.231796 29.662547,99.6887466 29.5741985,99.1546102 L29.504,98.692 L29.5082985,98.5611286 C29.5101895,98.5220076 29.5126083,98.4800739 29.51561,98.4354617 L29.5410548,98.13672 C29.5466081,98.0819306 29.5528544,98.0247309 29.5598486,97.9652553 L29.6112304,97.5821634 C29.7478675,96.6712493 29.9933033,95.7622281 30.3703552,94.9243349 C31.1870937,93.1093604 32.4886537,91.8898632 34.4291191,91.4485787 L35.3794118,91.2587335 L36.9608748,90.9638709 L37.9151701,90.7937702 L39.1434384,90.5817864 L40.4359831,90.3664075 L41.7916551,90.1482899 L43.2093058,89.92809 L44.6877862,89.7064642 C52.5937241,88.5423598 61.3215883,87.5809809 70.6162921,86.9678097 C96.7006465,85.247026 122.028691,86.5531731 144.657266,91.9819482 Z"></path>
      </g>
      <g fill="#FB0004" transform="translate(0.000000, 12.169221)" id="爱心">
        <path d="M20.476875,180 C26.280375,180 30,184.695685 30,191.015373 C30,195.919545 25.602,201.320529 16.936875,207.389352 C15.7716909,208.203549 14.2283091,208.203549 13.063125,207.389352 C4.39800001,201.320529 0,195.919545 0,191.015373 C0,184.695685 3.71962501,180 9.52312499,180 C11.619,180 13.040625,180.738974 15,182.415572 C16.95975,180.739353 18.381,180 20.476875,180 Z"></path>
        <path id="爱心备份" d="M170.476875,0 C176.280375,0 180,4.69568503 180,11.0153733 C180,15.9195452 175.602,21.3205289 166.936875,27.3893518 C165.771691,28.2035494 164.228309,28.2035494 163.063125,27.3893518 C154.398,21.3205289 150,15.9195452 150,11.0153733 C150,4.69568503 153.719625,0 159.523125,0 C161.619,0 163.040625,0.738974442 165,2.41557237 C166.95975,0.739352833 168.381,0 170.476875,0 Z"></path>
        <path id="爱心备份-2" d="M260.476875,90 C266.280375,90 270,94.695685 270,101.015373 C270,105.919545 265.602,111.320529 256.936875,117.389352 C255.771691,118.203549 254.228309,118.203549 253.063125,117.389352 C244.398,111.320529 240,105.919545 240,101.015373 C240,94.695685 243.719625,90 249.523125,90 C251.619,90 253.040625,90.7389744 255,92.4155724 C256.95975,90.7393528 258.381,90 260.476875,90 Z"></path>
      </g>
      <path transform="translate(268.060007, 57.475652) rotate(20.000000) translate(-268.060007, -57.475652)" fill="#000000" d="M259.555007,62.2706518 L259.555007,27.3406518 L223.085007,27.3406518 L223.085007,62.2706518 L259.555007,62.2706518 Z M207.195007,77.5306518 L207.195007,71.0906518 L218.815007,71.0906518 L218.815007,31.4706518 L202.015007,31.4706518 L202.015007,77.5306518 L207.195007,77.5306518 Z M253.465007,56.9506518 L228.895007,56.9506518 L228.895007,32.5906518 L253.465007,32.5906518 L253.465007,56.9506518 Z M233.095007,56.2506518 C236.735007,54.2906518 239.185007,51.6306518 240.865007,48.4106518 C243.735007,50.7906518 246.885007,53.5906518 248.565007,55.4806518 L251.715007,51.9106518 C249.755007,49.8106518 245.765007,46.5906518 242.545007,44.2106518 L242.825007,43.3006518 L251.155007,43.3006518 L251.155007,38.7506518 L243.735007,38.7506518 C243.945007,37.2806518 244.085007,35.8806518 244.225007,34.3406518 L239.605007,34.3406518 C239.465007,35.8806518 239.325007,37.3506518 239.115007,38.7506518 L231.135007,38.7506518 L231.135007,43.3006518 L237.995007,43.3006518 C236.735007,47.2906518 234.285007,50.5106518 230.085007,52.6806518 C231.065007,53.4506518 232.535007,55.2006518 233.095007,56.2506518 Z M213.565007,65.0706518 L207.195007,65.0706518 L207.195007,37.4906518 L213.565007,37.4906518 L213.565007,65.0706518 Z M244.225007,76.8306518 L248.985007,73.9606518 C248.075007,71.0206518 245.345007,66.6106518 242.685007,63.3906518 L238.135007,65.9806518 C240.725007,69.3406518 243.245007,73.8906518 244.225007,76.8306518 Z M259.065007,83.7606518 L264.105007,81.0306518 C262.915007,76.6906518 259.555007,69.8306518 256.405007,64.7206518 L251.715007,66.9606518 C254.725007,72.3506518 257.945007,79.3506518 259.065007,83.7606518 Z M221.265007,85.2306518 C223.925007,80.3306518 225.955007,73.1206518 227.215007,67.6606518 L222.245007,65.8406518 C221.125007,71.2306518 218.955007,77.8806518 216.365007,82.0806518 L221.265007,85.2306518 Z M247.025007,87.6106518 C252.485007,87.6106518 254.095007,85.3706518 254.725007,76.2706518 C253.185007,75.8506518 250.665007,74.9406518 249.405007,73.8906518 C249.129753,80.9784484 248.719204,82.1132889 246.510844,82.149722 L238.135007,82.1506518 C235.545007,82.1506518 235.125007,81.8706518 235.125007,80.0506518 L235.125007,66.5406518 L229.035007,66.5406518 L229.035007,80.1206518 C229.035007,85.8606518 230.645007,87.6106518 237.365007,87.6106518 L247.025007,87.6106518 Z M329.555007,62.2706518 L329.555007,27.3406518 L293.085007,27.3406518 L293.085007,62.2706518 L329.555007,62.2706518 Z M277.195007,77.5306518 L277.195007,71.0906518 L288.815007,71.0906518 L288.815007,31.4706518 L272.015007,31.4706518 L272.015007,77.5306518 L277.195007,77.5306518 Z M323.465007,56.9506518 L298.895007,56.9506518 L298.895007,32.5906518 L323.465007,32.5906518 L323.465007,56.9506518 Z M303.095007,56.2506518 C306.735007,54.2906518 309.185007,51.6306518 310.865007,48.4106518 C313.735007,50.7906518 316.885007,53.5906518 318.565007,55.4806518 L321.715007,51.9106518 C319.755007,49.8106518 315.765007,46.5906518 312.545007,44.2106518 L312.825007,43.3006518 L321.155007,43.3006518 L321.155007,38.7506518 L313.735007,38.7506518 C313.945007,37.2806518 314.085007,35.8806518 314.225007,34.3406518 L309.605007,34.3406518 C309.465007,35.8806518 309.325007,37.3506518 309.115007,38.7506518 L301.135007,38.7506518 L301.135007,43.3006518 L307.995007,43.3006518 C306.735007,47.2906518 304.285007,50.5106518 300.085007,52.6806518 C301.065007,53.4506518 302.535007,55.2006518 303.095007,56.2506518 Z M283.565007,65.0706518 L277.195007,65.0706518 L277.195007,37.4906518 L283.565007,37.4906518 L283.565007,65.0706518 Z M314.225007,76.8306518 L318.985007,73.9606518 C318.075007,71.0206518 315.345007,66.6106518 312.685007,63.3906518 L308.135007,65.9806518 C310.725007,69.3406518 313.245007,73.8906518 314.225007,76.8306518 Z M329.065007,83.7606518 L334.105007,81.0306518 C332.915007,76.6906518 329.555007,69.8306518 326.405007,64.7206518 L321.715007,66.9606518 C324.725007,72.3506518 327.945007,79.3506518 329.065007,83.7606518 Z M291.265007,85.2306518 C293.925007,80.3306518 295.955007,73.1206518 297.215007,67.6606518 L292.245007,65.8406518 C291.125007,71.2306518 288.955007,77.8806518 286.365007,82.0806518 L291.265007,85.2306518 Z M317.025007,87.6106518 C322.485007,87.6106518 324.095007,85.3706518 324.725007,76.2706518 C323.185007,75.8506518 320.665007,74.9406518 319.405007,73.8906518 C319.129753,80.9784484 318.719204,82.1132889 316.510844,82.149722 L308.135007,82.1506518 C305.545007,82.1506518 305.125007,81.8706518 305.125007,80.0506518 L305.125007,66.5406518 L299.035007,66.5406518 L299.035007,80.1206518 C299.035007,85.8606518 300.645007,87.6106518 307.365007,87.6106518 L317.025007,87.6106518 Z"></path>
    </g>
  </g>
</svg>
